<svg xmlns="http://www.w3.org/2000/svg" viewBox="45.02508544921875 160.96098153563327 427.7400421142578 221.27768292482722"> <svg xmlns="http://www.w3.org/2000/svg" xmlns:xlink="http://www.w3.org/1999/xlink" version="1.1" id="Layer_1" x="115.02508544921875" y="230.96098153563327" viewBox="0 0 85 82.2" xml:space="preserve" height="81.2776829248272" width="85" preserveAspectRatio="xMinYMin" enable-background="new 0 0 85 82.2" style="overflow: visible;"><path class="st417" d="M42.5,41.1v11.4c0.9-0.9,2.1-1.4,3.4-1.4c2.7,0,4.9,2.2,4.9,4.9c0,2.7-2.2,4.9-4.9,4.9    c-1.3,0-2.5-0.5-3.4-1.4v7.6c0,6.8-5.5,12.2-12.2,12.2c-6.8,0-12.2-5.5-12.2-12.2c0-0.2,0-0.3,0-0.5c-4.6-1.3-8-5.5-8-10.5    c0-1.2,0.2-2.4,0.6-3.5C6,50.9,2.6,46.4,2.6,41.1" style="fill: #9CCFF2;"></path><path class="st375" d="M42.5,41.1H27.1c0.9,0.9,1.4,2.1,1.4,3.4c0,2.7-2.2,4.9-4.9,4.9s-4.9-2.2-4.9-4.9c0-1.3,0.5-2.5,1.4-3.4    c0,0-17.5,0-17.5,0c0-5.3,3.4-9.8,8.1-11.5c-0.4-1.1-0.6-2.3-0.6-3.5c0-5,3.4-9.2,8-10.5c0-0.2,0-0.3,0-0.5    c0-6.8,5.5-12.2,12.2-12.2c6.8,0,12.2,5.5,12.2,12.2" style="fill: #E6B466;"></path><path class="st417" d="M42.5,41.1V29.7c-0.9,0.9-2.1,1.4-3.4,1.4c-2.7,0-4.9-2.2-4.9-4.9s2.2-4.9,4.9-4.9c1.3,0,2.5,0.5,3.4,1.4    v-7.6c0-6.8,5.5-12.2,12.2-12.2C61.5,2.8,67,8.3,67,15.1c0,0.2,0,0.3,0,0.5c4.6,1.3,8,5.5,8,10.5c0,1.2-0.2,2.4-0.6,3.5    c4.7,1.7,8.1,6.2,8.1,11.5c0,5.3-3.4,9.8-8.1,11.5c0.4,1.1,0.6,2.3,0.6,3.5c0,5-3.4,9.2-8,10.5c0,0.2,0,0.3,0,0.5    c0,6.8-5.5,12.2-12.2,12.2c-6.8,0-12.2-5.5-12.2-12.2" style="fill: #9CCFF2;"></path><path class="st418" d="M42.5,41.1V29.7c-0.9,0.9-2.1,1.4-3.4,1.4c-2.7,0-4.9-2.2-4.9-4.9s2.2-4.9,4.9-4.9c1.3,0,2.5,0.5,3.4,1.4    v-7.6c0-6.8,5.5-12.2,12.2-12.2C61.5,2.8,67,8.3,67,15.1c0,0.2,0,0.3,0,0.5c4.6,1.3,8,5.5,8,10.5c0,1.2-0.2,2.4-0.6,3.5    c4.7,1.7,8.1,6.2,8.1,11.5c0,5.3-3.4,9.8-8.1,11.5c0.4,1.1,0.6,2.3,0.6,3.5c0,5-3.4,9.2-8,10.5c0,0.2,0,0.3,0,0.5    c0,6.8-5.5,12.2-12.2,12.2c-6.8,0-12.2-5.5-12.2-12.2" style="fill: none; stroke: #464548; stroke-width: 4; stroke-linecap: round; stroke-linejoin: round; stroke-miterlimit: 10;"></path><path class="st418" d="M50.1,33.8c-0.2,0.6-0.3,1.3-0.3,2c0,4.1,3.3,7.5,7.5,7.5" style="fill: none; stroke: #464548; stroke-width: 4; stroke-linecap: round; stroke-linejoin: round; stroke-miterlimit: 10;"></path><path class="st418" d="M53.4,66.2c0.6,0,1.1,0,1.7-0.2c3.4-0.8,5.5-4.2,4.6-7.6" style="fill: none; stroke: #464548; stroke-width: 4; stroke-linecap: round; stroke-linejoin: round; stroke-miterlimit: 10;"></path><path class="st418" d="M61.7,24.6c-0.2,0.3-0.3,0.6-0.4,1c-0.5,2.2,0.9,4.3,3.1,4.8" style="fill: none; stroke: #464548; stroke-width: 4; stroke-linecap: round; stroke-linejoin: round; stroke-miterlimit: 10;"></path><path class="st418" d="M67,15.5c-0.9-0.3-1.9-0.4-2.9-0.4c-2.9,0-5.6,1.2-7.6,3" style="fill: none; stroke: #464548; stroke-width: 4; stroke-linecap: round; stroke-linejoin: round; stroke-miterlimit: 10;"></path><path class="st418" d="M64.1,45.3c6,0,10.9,4.9,10.9,10.9" style="fill: none; stroke: #464548; stroke-width: 4; stroke-linecap: round; stroke-linejoin: round; stroke-miterlimit: 10;"></path><path class="st418" d="M75,25.7c0,3.5-1.7,6.7-4.3,8.7" style="fill: none; stroke: #464548; stroke-width: 4; stroke-linecap: round; stroke-linejoin: round; stroke-miterlimit: 10;"></path><path class="st418" d="M42.5,41.1v11.4c0.9-0.9,2.1-1.4,3.4-1.4c2.7,0,4.9,2.2,4.9,4.9c0,2.7-2.2,4.9-4.9,4.9    c-1.3,0-2.5-0.5-3.4-1.4v7.6c0,6.8-5.5,12.2-12.2,12.2c-6.8,0-12.2-5.5-12.2-12.2c0-0.2,0-0.3,0-0.5c-4.6-1.3-8-5.5-8-10.5    c0-1.2,0.2-2.4,0.6-3.5C6,50.9,2.6,46.4,2.6,41.1" style="fill: none; stroke: #464548; stroke-width: 4; stroke-linecap: round; stroke-linejoin: round; stroke-miterlimit: 10;"></path><path class="st419" d="M42.5,41.1H27.1c0.9,0.9,1.4,2.1,1.4,3.4c0,2.7-2.2,4.9-4.9,4.9s-4.9-2.2-4.9-4.9c0-1.3,0.5-2.5,1.4-3.4    c0,0-17.5,0-17.5,0c0-5.3,3.4-9.8,8.1-11.5c-0.4-1.1-0.6-2.3-0.6-3.5c0-5,3.4-9.2,8-10.5c0-0.2,0-0.3,0-0.5    c0-6.8,5.5-12.2,12.2-12.2c6.8,0,12.2,5.5,12.2,12.2" style="fill: none; stroke: #464548; stroke-width: 4; stroke-linejoin: round; stroke-miterlimit: 10;"></path></svg> <svg x="210.4" y="253.0090001525879" viewBox="1.0048749446868896 12.550000190734863 192.36512756347656 33.44000244140625" height="33.44000244140625" width="192.36512756347656" style="overflow: visible;"><g fill="#464548" fill-opacity="1" style=""><path d="M4.09 45.90L4.09 45.90Q2.83 45.90 2.05 45.31Q1.26 44.73 1.06 43.74Q0.85 42.75 1.44 41.53L1.44 41.53L12.96 16.29Q13.68 14.76 14.67 14.06Q15.66 13.37 16.96 13.37L16.96 13.37Q18.27 13.37 19.26 14.06Q20.25 14.76 20.93 16.29L20.93 16.29L32.53 41.53Q33.12 42.75 32.96 43.76Q32.80 44.77 32.04 45.34Q31.27 45.90 30.06 45.90L30.06 45.90Q28.53 45.90 27.70 45.18Q26.86 44.46 26.23 42.93L26.23 42.93L23.54 36.67L26.32 38.61L7.56 38.61L10.35 36.67L7.69 42.93Q7.02 44.50 6.28 45.20Q5.54 45.90 4.09 45.90ZM16.96 21.19L16.88 21.19L11.12 34.92L9.90 33.16L23.98 33.16L22.77 34.92L16.96 21.19ZM44.59 45.90L44.59 45.90Q42.88 45.90 41.98 44.95Q41.08 44.01 41.08 42.30L41.08 42.30L41.08 19.53L33.12 19.53Q31.72 19.53 30.96 18.76Q30.19 18 30.19 16.65L30.19 16.65Q30.19 15.25 30.96 14.51Q31.72 13.77 33.12 13.77L33.12 13.77L56.02 13.77Q57.42 13.77 58.19 14.51Q58.95 15.25 58.95 16.65L58.95 16.65Q58.95 18 58.19 18.76Q57.42 19.53 56.02 19.53L56.02 19.53L48.06 19.53L48.06 42.30Q48.06 44.01 47.18 44.95Q46.30 45.90 44.59 45.90ZM67.18 45.90L67.18 45.90Q65.52 45.90 64.64 45Q63.76 44.10 63.76 42.43L63.76 42.43L63.76 16.83Q63.76 15.12 64.64 14.24Q65.52 13.37 67.18 13.37L67.18 13.37Q68.80 13.37 69.68 14.24Q70.56 15.12 70.56 16.83L70.56 16.83L70.56 27.54L69.93 27.54Q70.96 25.33 73.01 24.14Q75.06 22.95 77.67 22.95L77.67 22.95Q80.32 22.95 82.03 23.96Q83.74 24.97 84.60 27.02Q85.45 29.07 85.45 32.22L85.45 32.22L85.45 42.43Q85.45 44.10 84.58 45Q83.70 45.90 82.03 45.90L82.03 45.90Q80.41 45.90 79.54 45Q78.66 44.10 78.66 42.43L78.66 42.43L78.66 32.53Q78.66 30.24 77.83 29.23Q76.99 28.21 75.28 28.21L75.28 28.21Q73.13 28.21 71.84 29.56Q70.56 30.91 70.56 33.16L70.56 33.16L70.56 42.43Q70.56 45.90 67.18 45.90ZM102.01 45.99L102.01 45.99Q98.10 45.99 95.29 44.57Q92.47 43.16 90.97 40.57Q89.46 37.98 89.46 34.47L89.46 34.47Q89.46 31.05 90.90 28.46Q92.34 25.87 94.93 24.41Q97.51 22.95 100.80 22.95L100.80 22.95Q103.18 22.95 105.12 23.74Q107.05 24.52 108.45 25.99Q109.84 27.45 110.56 29.54Q111.28 31.63 111.28 34.20L111.28 34.20Q111.28 35.05 110.74 35.48Q110.20 35.91 109.17 35.91L109.17 35.91L95.04 35.91L95.04 32.40L106.38 32.40L105.66 33.03Q105.66 31.18 105.12 29.95Q104.58 28.71 103.57 28.08Q102.55 27.45 101.07 27.45L101.07 27.45Q99.40 27.45 98.23 28.21Q97.06 28.98 96.43 30.42Q95.80 31.86 95.80 33.88L95.80 33.88L95.80 34.24Q95.80 37.66 97.40 39.28Q99 40.91 102.15 40.91L102.15 40.91Q103.23 40.91 104.63 40.63Q106.02 40.36 107.23 39.78L107.23 39.78Q108.27 39.28 109.08 39.44Q109.89 39.60 110.34 40.18Q110.79 40.77 110.86 41.53Q110.92 42.30 110.52 43.04Q110.11 43.78 109.17 44.28L109.17 44.28Q107.64 45.13 105.73 45.56Q103.81 45.99 102.01 45.99ZM118.75 45.90L118.75 45.90Q117.04 45.90 116.14 45Q115.24 44.10 115.24 42.43L115.24 42.43L115.24 26.46Q115.24 24.79 116.12 23.92Q117.00 23.04 118.57 23.04L118.57 23.04Q120.19 23.04 121.05 23.92Q121.90 24.79 121.90 26.46L121.90 26.46L121.90 28.80L121.45 28.80Q121.99 26.10 123.84 24.61Q125.68 23.13 128.61 22.95L128.61 22.95Q129.73 22.86 130.34 23.51Q130.95 24.16 131.00 25.65L131.00 25.65Q131.08 27.04 130.43 27.85Q129.78 28.66 128.25 28.84L128.25 28.84L127.21 28.93Q124.65 29.16 123.41 30.42Q122.17 31.68 122.17 34.06L122.17 34.06L122.17 42.43Q122.17 44.10 121.30 45Q120.42 45.90 118.75 45.90ZM141.03 45.99L141.03 45.99Q138.60 45.99 136.66 45.04Q134.73 44.10 133.65 42.48Q132.57 40.86 132.57 38.83L132.57 38.83Q132.57 36.41 133.83 34.99Q135.09 33.57 137.92 32.96Q140.76 32.35 145.44 32.35L145.44 32.35L147.82 32.35L147.82 35.86L145.48 35.86Q143.19 35.86 141.77 36.11Q140.35 36.36 139.75 36.95Q139.14 37.53 139.14 38.56L139.14 38.56Q139.14 39.82 140.02 40.63Q140.89 41.45 142.56 41.45L142.56 41.45Q143.86 41.45 144.88 40.84Q145.89 40.23 146.47 39.17Q147.06 38.11 147.06 36.77L147.06 36.77L147.06 31.59Q147.06 29.61 146.16 28.78Q145.26 27.94 143.10 27.94L143.10 27.94Q141.88 27.94 140.47 28.24Q139.05 28.53 137.34 29.20L137.34 29.20Q136.35 29.65 135.58 29.41Q134.82 29.16 134.41 28.51Q134.01 27.85 134.01 27.07Q134.01 26.28 134.46 25.54Q134.91 24.79 135.94 24.43L135.94 24.43Q138.06 23.58 139.93 23.26Q141.79 22.95 143.37 22.95L143.37 22.95Q146.83 22.95 149.06 23.96Q151.29 24.97 152.41 27.07Q153.54 29.16 153.54 32.45L153.54 32.45L153.54 42.43Q153.54 44.10 152.73 45Q151.92 45.90 150.39 45.90L150.39 45.90Q148.86 45.90 148.03 45Q147.19 44.10 147.19 42.43L147.19 42.43L147.19 40.77L147.51 41.04Q147.24 42.57 146.36 43.67Q145.48 44.77 144.13 45.38Q142.78 45.99 141.03 45.99ZM162.76 45.90L162.76 45.90Q161.05 45.90 160.13 44.95Q159.21 44.01 159.21 42.21L159.21 42.21L159.21 17.41Q159.21 15.66 160.15 14.71Q161.10 13.77 162.85 13.77L162.85 13.77L178.24 13.77Q179.59 13.77 180.29 14.47Q180.99 15.16 180.99 16.47L180.99 16.47Q180.99 17.82 180.29 18.52Q179.59 19.21 178.24 19.21L178.24 19.21L166.18 19.21L166.18 26.95L177.25 26.95Q178.60 26.95 179.32 27.65Q180.04 28.35 180.04 29.65L180.04 29.65Q180.04 30.96 179.32 31.68Q178.60 32.40 177.25 32.40L177.25 32.40L166.18 32.40L166.18 42.21Q166.18 45.90 162.76 45.90ZM189.50 45.85L189.50 45.85Q187.83 45.85 186.95 44.89Q186.08 43.92 186.08 42.16L186.08 42.16L186.08 26.77Q186.08 24.97 186.95 24.01Q187.83 23.04 189.50 23.04L189.50 23.04Q191.12 23.04 191.99 24.01Q192.87 24.97 192.87 26.77L192.87 26.77L192.87 42.16Q192.87 43.92 192.02 44.89Q191.16 45.85 189.50 45.85ZM189.50 19.35L189.50 19.35Q187.60 19.35 186.59 18.47Q185.58 17.59 185.58 15.97L185.58 15.97Q185.58 14.31 186.59 13.43Q187.60 12.55 189.50 12.55L189.50 12.55Q191.38 12.55 192.38 13.43Q193.37 14.31 193.37 15.97L193.37 15.97Q193.37 17.59 192.38 18.47Q191.38 19.35 189.50 19.35Z" transform="translate(0, 0)"></path></g></svg></svg>